2.5Hzhigh3min_grf.mot
version=1
nRows=27
nColumns 19
inDegrees=yes
endheader
time	1_ground_force_vx	1_ground_force_vy	1_ground_force_vz	1_ground_force_px	1_ground_force_py	1_ground_force_pz	1_ground_torque_x	1_ground_torque_y	1_ground_torque_z	2_ground_force_vx	2_ground_force_vy	2_ground_force_vz	2_ground_force_px	2_ground_force_py	2_ground_force_pz	2_ground_torque_x	2_ground_torque_y	2_ground_torque_z
            1.253500	            0.136717	           -0.539198	           -0.369508	           -0.233013	            0.005581	           -0.255695	            0.053555	           -0.036913	            0.005592	            0.047309	           -0.182305	           -0.469958	           -0.232311	            0.006130	           -0.833667	           -0.150443	            0.028286	           -0.131786
            1.254000	            0.137853	            0.720303	            0.186174	           -0.233013	            0.005581	           -0.255695	           -0.008175	           -0.009336	            0.043415	           -0.139947	           -0.184154	           -0.141382	           -0.232311	            0.006130	           -0.833667	           -0.093977	            0.009248	           -0.037627
            1.254500	            0.045828	           -0.540592	           -0.048289	           -0.233013	            0.005581	           -0.255695	            0.077363	           -0.073832	           -0.017333	           -0.040307	           -1.840816	           -0.241191	           -0.232311	            0.006130	           -0.833667	           -0.056261	           -0.037678	           -0.094362
            1.255000	           -0.136585	           -0.181865	            0.366416	           -0.233013	            0.005581	           -0.255695	            0.115727	           -0.018273	           -0.062618	            0.092912	            0.185491	           -0.280951	           -0.232311	            0.006130	           -0.833667	           -0.131581	            0.009381	           -0.113012
            1.255500	            0.092743	           -0.182017	            0.411703	           -0.233013	            0.005581	           -0.255695	            0.170212	           -0.055290	           -0.015542	            0.139679	            0.186330	           -0.468684	           -0.232311	            0.006130	           -0.833667	           -0.056347	           -0.009454	           -0.056560
            1.256000	            0.001822	           -0.003146	            0.733695	           -0.233013	            0.005581	           -0.255695	            0.043664	            0.000276	           -0.056502	           -0.045123	           -0.550438	           -0.612017	           -0.232311	            0.006130	           -0.833667	           -0.131648	            0.019103	           -0.188379
            1.256500	            0.046721	            0.178702	            0.367506	           -0.233013	            0.005581	           -0.255695	            0.078157	           -0.018518	            0.020473	           -0.091288	           -0.734923	           -0.565726	           -0.232311	            0.006130	           -0.833667	           -0.225654	            0.056104	           -0.056252
            1.257000	            0.229068	            0.180507	           -0.045652	           -0.233013	            0.005581	           -0.255695	            0.076965	           -0.073829	            0.009260	            0.097317	           -1.101539	           -0.848688	           -0.232311	            0.006130	           -0.833667	           -0.113112	            0.103774	           -0.056132
            1.257500	            0.321683	           -0.541915	            0.272020	           -0.233013	            0.005581	           -0.255695	            0.082562	           -0.027638	            0.032177	            0.141050	           -0.182302	           -0.376142	           -0.232311	            0.006130	           -0.833667	           -0.169007	           -0.028632	           -0.094280
            1.258000	            0.229964	           -0.361667	            0.273021	           -0.233013	            0.005581	           -0.255695	            0.101212	           -0.046163	            0.028135	            0.047350	           -0.182640	           -0.376102	           -0.232311	            0.006130	           -0.833667	           -0.131446	           -0.019246	           -0.037712
            1.258500	           -0.091165	           -0.361335	            0.182105	           -0.233013	            0.005581	           -0.255695	            0.048487	           -0.018110	           -0.098085	            0.140467	            0.001177	           -0.187772	           -0.232311	            0.006130	           -0.833667	           -0.093866	           -0.028361	           -0.094312
            1.259000	           -0.320332	           -0.001045	            0.230076	           -0.233013	            0.005581	           -0.255695	            0.046416	           -0.018456	           -0.051474	            0.048679	           -0.550937	           -0.377416	           -0.232311	            0.006130	           -0.833667	           -0.112617	           -0.037882	           -0.094338
            1.259500	            0.001171	           -0.182232	            0.457786	           -0.233013	            0.005581	           -0.255695	            0.111921	            0.000119	           -0.019069	            0.000521	           -0.182977	           -0.329154	           -0.232311	            0.006130	           -0.833667	           -0.244395	            0.028149	           -0.188297
            1.260000	            0.000893	            0.719293	            0.415795	           -0.233013	            0.005581	           -0.255695	            0.056932	            0.009430	           -0.037723	            0.139077	            0.369976	           -0.327242	           -0.232311	            0.006130	           -0.833667	           -0.169331	            0.056576	           -0.131677
            1.260500	            0.046265	            0.179488	            0.184083	           -0.233013	            0.005581	           -0.255695	            0.010750	           -0.018296	           -0.035753	            0.001809	           -0.550939	           -0.424324	           -0.232311	            0.006130	           -0.833667	           -0.225687	            0.056373	           -0.131653
            1.261000	            0.183453	            0.180104	            0.046174	           -0.233013	            0.005581	           -0.255695	            0.054216	            0.009420	           -0.011080	           -0.000850	            0.185655	           -0.421696	           -0.232311	            0.006130	           -0.833667	           -0.112778	            0.000131	           -0.150754
            1.261500	            0.137903	           -0.180829	            0.136453	           -0.233013	            0.005581	           -0.255695	            0.087988	           -0.018160	           -0.050820	            0.281579	           -0.181627	           -0.423130	           -0.232311	            0.006130	           -0.833667	           -0.112804	            0.009516	           -0.131870
            1.262000	            0.046511	           -0.541771	            0.226847	           -0.233013	            0.005581	           -0.255695	           -0.028239	           -0.018383	           -0.016833	            0.095570	           -0.551102	           -0.283580	           -0.232311	            0.006130	           -0.833667	           -0.187766	           -0.047269	           -0.188591
            1.262500	            0.138652	           -0.542540	            0.410043	           -0.233013	            0.005581	           -0.255695	            0.132615	            0.000668	           -0.126030	            0.094200	           -0.182471	           -0.376122	           -0.232311	            0.006130	           -0.833667	           -0.169220	            0.028151	           -0.112928
            1.263000	           -0.227963	           -0.002207	            0.504984	           -0.233013	            0.005581	           -0.255695	            0.034691	            0.000080	           -0.047456	            0.141070	           -0.182469	           -0.329214	           -0.232311	            0.006130	           -0.833667	           -0.169313	            0.047258	           -0.169411
            1.263500	           -0.044006	            0.537446	            0.781983	           -0.233013	            0.005581	           -0.255695	            0.022724	            0.000011	           -0.002030	            0.186509	            0.186666	           -0.515632	           -0.232311	            0.006130	           -0.833667	           -0.075302	            0.028557	           -0.131818
            1.264000	            0.046200	            0.540019	            0.185629	           -0.233013	            0.005581	           -0.255695	            0.085610	           -0.036768	           -0.036031	            0.049241	           -0.734248	           -0.612713	           -0.232311	            0.006130	           -0.833667	           -0.244387	            0.037265	           -0.094012
            1.264500	            0.138341	            0.539251	            0.368825	           -0.233013	            0.005581	           -0.255695	            0.115251	           -0.045796	           -0.069830	            0.286211	           -1.470498	           -0.474657	           -0.232311	            0.006130	           -0.833667	           -0.112865	            0.037538	           -0.037518
            1.265000	            0.183013	            0.721491	           -0.089075	           -0.233013	            0.005581	           -0.255695	            0.040957	            0.037143	           -0.010947	            0.424787	           -0.917713	           -0.425818	           -0.232311	            0.006130	           -0.833667	           -0.188056	            0.037670	           -0.150587
            1.265500	            0.091914	           -0.000375	            0.091484	           -0.233013	            0.005581	           -0.255695	           -0.041538	            0.000199	           -0.033583	            0.188605	           -0.366616	           -0.282962	           -0.232311	            0.006130	           -0.833667	           -0.018717	           -0.018973	           -0.000059
            1.266000	           -0.137089	           -0.541413	            0.135590	           -0.233013	            0.005581	           -0.255695	            0.050552	           -0.008889	           -0.099999	           -0.093344	           -0.181976	           -0.704539	           -0.232311	            0.006130	           -0.833667	           -0.056330	           -0.009589	           -0.018860
            1.266500	            0.000779	            0.719490	            0.369939	           -0.233013	            0.005581	           -0.255695	            0.039926	            0.028235	           -0.112792	            0.189811	           -0.733908	           -0.565845	           -0.232311	            0.006130	           -0.833667	           -0.244379	            0.037198	           -0.075162
